<svg version="1.1" id="Layer_1" xmlns="http://www.w3.org/2000/svg" xmlns:xlink="http://www.w3.org/1999/xlink" x="0px" y="0px"
	 width="100%" viewBox="0 0 188 84" enable-background="new 0 0 188 84" xml:space="preserve">
<path fill="#FBFCFC" opacity="1.000000" stroke="none" 
	d="
M137.000000,85.000000 
	C91.333336,85.000000 46.166679,85.000000 1.000012,85.000000 
	C1.000008,57.000008 1.000008,29.000017 1.000004,1.000020 
	C63.666653,1.000013 126.333305,1.000013 188.999969,1.000007 
	C188.999969,28.999979 188.999969,56.999958 188.999985,84.999969 
	C171.833328,85.000000 154.666672,85.000000 137.000000,85.000000 
M117.454750,65.230164 
	C117.454750,65.230164 117.728287,65.463730 117.728287,65.463730 
	C117.728287,65.463730 118.086205,65.426895 118.610863,65.917824 
	C120.534363,67.209923 122.372612,68.656975 124.394875,69.769585 
	C140.367249,78.557358 162.419937,71.173370 169.274307,54.336075 
	C172.643982,46.799957 173.651962,39.124214 170.816299,30.481195 
	C168.726654,23.722729 165.115463,18.059534 158.455643,13.741401 
	C154.945755,12.516081 151.435852,11.290761 147.522430,9.871344 
	C147.522430,9.871344 147.093903,9.743006 146.843704,8.980720 
	C138.317352,6.366826 130.136292,7.956050 126.294098,12.730275 
	C126.294098,12.730275 125.989838,13.012821 125.481705,12.923119 
	C125.325645,12.850798 125.169594,12.778477 125.002571,12.100718 
	C122.145927,11.863057 119.673615,12.128355 119.847412,16.645748 
	C119.834854,17.098366 119.822296,17.550982 119.315422,17.913002 
	C119.155609,17.963221 118.995804,18.013437 118.281990,18.330393 
	C117.251320,18.669525 115.856972,18.694223 115.248291,19.398212 
	C110.914978,24.410046 107.325935,29.818605 106.806686,37.356041 
	C106.151283,46.412754 107.305756,54.850014 115.198448,61.578999 
	C115.331635,61.937153 115.464821,62.295307 115.493088,63.110126 
	C115.605133,63.447063 115.838173,63.630058 116.255890,63.803566 
	C116.255890,63.803566 116.396133,63.876053 116.450615,64.267906 
	C116.600136,64.529152 116.824051,64.639191 117.232010,64.772087 
	C117.232010,64.772087 117.412254,64.871223 117.454750,65.230164 
M55.114643,62.717842 
	C56.165016,63.107841 57.215385,63.497841 58.265759,63.887840 
	C58.366913,63.423603 58.468063,62.959370 58.569218,62.495132 
	C57.388916,62.320396 56.208614,62.145660 55.026058,61.132607 
	C55.308655,58.680092 55.591255,56.227577 55.840572,54.063877 
	C51.960648,57.304214 51.635983,59.533478 55.114643,62.717842 
M95.996078,45.261662 
	C99.097298,48.188175 100.140175,46.031395 100.866234,43.257641 
	C102.636383,36.495136 104.369194,29.722866 106.125450,22.956711 
	C107.484245,17.721825 108.855782,12.490244 110.221649,7.257192 
	C109.650787,6.992829 109.079926,6.728467 108.509071,6.464104 
	C107.746475,7.851632 106.672165,9.155134 106.271820,10.640308 
	C103.658516,20.334946 101.191284,30.068951 98.349586,41.052879 
	C97.550400,38.783054 97.127686,37.769741 96.834480,36.720249 
	C94.371429,27.904333 92.022018,19.054806 89.391205,10.289588 
	C88.984810,8.935586 87.320076,7.959262 86.237274,6.808273 
	C85.296806,7.930043 83.869637,8.909784 83.494171,10.196434 
	C80.883720,19.141926 78.505165,28.154900 76.008881,37.134182 
	C75.752365,38.056873 75.210617,38.900269 74.466179,40.500790 
	C71.728928,29.911797 69.278122,20.231882 66.679878,10.591707 
	C66.284729,9.125581 65.205826,7.843737 64.443184,6.476657 
	C63.945713,6.722533 63.448242,6.968409 62.950771,7.214284 
	C63.197605,8.452468 63.382782,9.706738 63.700966,10.926305 
	C66.390297,21.234249 69.038429,31.553947 71.875168,41.821423 
	C72.343834,43.517773 73.670097,44.977180 74.600029,46.546085 
	C75.718803,44.987797 77.357063,43.583000 77.870354,41.845806 
	C80.768669,32.036663 83.396980,22.147745 86.479927,10.971428 
	C89.842346,23.071531 92.824501,33.803204 95.996078,45.261662 
M9.874227,46.642178 
	C16.949657,46.642178 24.025087,46.642178 31.100517,46.642178 
	C31.107250,45.859436 31.113981,45.076694 31.120712,44.293953 
	C24.214834,44.293953 17.308956,44.293953 9.895754,44.293953 
	C9.895754,41.784740 9.895641,40.171349 9.895772,38.557957 
	C9.896526,29.234097 9.945244,19.909714 9.843894,10.586963 
	C9.829521,9.264900 9.085299,7.950772 8.678881,6.632971 
	C8.115989,6.761353 7.553096,6.889734 6.990204,7.018115 
	C6.990204,19.631857 6.963698,32.245827 7.073421,44.858616 
	C7.078566,45.450043 8.297449,46.030914 9.874227,46.642178 
M45.508904,6.866194 
	C41.056992,6.866194 36.605076,6.866194 32.153164,6.866194 
	C32.128246,7.539041 32.103333,8.211887 32.078415,8.884734 
	C36.319054,9.137973 40.559689,9.391212 44.994076,9.656020 
	C45.453911,22.054668 44.681129,34.252857 45.406395,46.373672 
	C46.137863,46.365456 46.869328,46.357243 47.600792,46.349026 
	C47.600792,34.129272 47.600792,21.909517 47.600792,8.916063 
	C52.792202,8.916063 57.038010,8.916063 61.283813,8.916063 
	C61.291767,8.232726 61.299721,7.549388 61.307674,6.866051 
	C56.373192,6.866051 51.438705,6.866051 45.508904,6.866194 
M60.248013,57.959713 
	C60.314980,59.157513 60.381943,60.355316 60.448910,61.553120 
	C61.185905,61.320179 61.922905,61.087238 62.659901,60.854298 
	C62.012680,59.703083 61.365463,58.551865 60.248013,57.959713 
M126.468361,10.736842 
	C126.468361,10.736842 126.415398,10.604329 126.468361,10.736842 
z"/>
<path fill="#2E4250" opacity="1.000000" stroke="none" 
	d="
M95.901367,44.898270 
	C92.824501,33.803204 89.842346,23.071531 86.479927,10.971428 
	C83.396980,22.147745 80.768669,32.036663 77.870354,41.845806 
	C77.357063,43.583000 75.718803,44.987797 74.600029,46.546085 
	C73.670097,44.977180 72.343834,43.517773 71.875168,41.821423 
	C69.038429,31.553947 66.390297,21.234249 63.700966,10.926305 
	C63.382782,9.706738 63.197605,8.452468 62.950771,7.214284 
	C63.448242,6.968409 63.945713,6.722533 64.443184,6.476657 
	C65.205826,7.843737 66.284729,9.125581 66.679878,10.591707 
	C69.278122,20.231882 71.728928,29.911797 74.466179,40.500790 
	C75.210617,38.900269 75.752365,38.056873 76.008881,37.134182 
	C78.505165,28.154900 80.883720,19.141926 83.494171,10.196434 
	C83.869637,8.909784 85.296806,7.930043 86.237274,6.808274 
	C87.320076,7.959262 88.984810,8.935586 89.391205,10.289588 
	C92.022018,19.054806 94.371429,27.904333 96.834480,36.720249 
	C97.127686,37.769741 97.550400,38.783054 98.349586,41.052879 
	C101.191284,30.068951 103.658516,20.334946 106.271820,10.640308 
	C106.672165,9.155134 107.746475,7.851632 108.509071,6.464104 
	C109.079926,6.728467 109.650787,6.992829 110.221649,7.257192 
	C108.855782,12.490244 107.484245,17.721825 106.125450,22.956711 
	C104.369194,29.722866 102.636383,36.495136 100.866234,43.257641 
	C100.140175,46.031395 99.097298,48.188175 95.901367,44.898270 
z"/>
<path fill="#0C1725" opacity="1.000000" stroke="none" 
	d="
M107.456238,36.849129 
	C107.325935,29.818605 110.914978,24.410046 115.248291,19.398212 
	C115.856972,18.694223 117.251320,18.669525 118.591606,18.630432 
	C119.607712,19.803316 120.314194,20.676157 120.995956,21.836601 
	C120.221130,23.113705 119.471024,24.103205 118.440140,25.463100 
	C118.544273,25.909492 118.794365,26.981548 118.868851,28.372711 
	C118.771774,32.130402 118.850311,35.568989 118.867828,39.391190 
	C118.783279,40.809017 118.759750,41.843235 118.521332,43.005428 
	C118.221832,43.446232 118.137230,43.759052 117.868118,44.390793 
	C117.894012,46.749393 118.104424,48.789082 117.923538,50.885006 
	C117.006012,50.970352 116.479774,50.999454 115.681969,50.825729 
	C113.775993,47.912270 112.110008,45.220016 110.518219,42.484589 
	C109.443428,40.637600 108.473221,38.729755 107.456238,36.849129 
z"/>
<path fill="#5A82AA" opacity="1.000000" stroke="none" 
	d="
M168.856949,54.934498 
	C162.419937,71.173370 140.367249,78.557358 124.394875,69.769585 
	C122.372612,68.656975 120.534363,67.209923 118.269272,65.545731 
	C117.788078,65.017975 117.616272,64.917168 117.412254,64.871223 
	C117.412254,64.871223 117.232010,64.772087 117.099319,64.526352 
	C116.821922,64.081657 116.631760,63.946804 116.396133,63.876053 
	C116.396133,63.876053 116.255890,63.803566 116.263123,63.527321 
	C116.270355,63.251072 116.436798,62.869858 116.674072,62.684875 
	C117.884903,62.388489 118.858459,62.277088 119.943085,62.490715 
	C127.496422,68.898743 136.134003,69.917351 145.183319,68.321671 
	C147.262665,67.955009 149.080170,66.103401 151.017090,64.591652 
	C151.644791,63.495914 152.273605,62.743687 153.062866,62.318817 
	C158.023651,66.094719 160.021393,61.491989 162.881241,59.306919 
	C164.842072,57.808758 166.862930,56.389194 168.856949,54.934498 
z"/>
<path fill="#3C4E5B" opacity="1.000000" stroke="none" 
	d="
M9.412649,46.629440 
	C8.297449,46.030914 7.078566,45.450043 7.073421,44.858616 
	C6.963698,32.245827 6.990204,19.631857 6.990204,7.018115 
	C7.553096,6.889734 8.115989,6.761353 8.678881,6.632971 
	C9.085299,7.950772 9.829521,9.264900 9.843894,10.586963 
	C9.945244,19.909714 9.896526,29.234097 9.895772,38.557957 
	C9.895641,40.171349 9.895754,41.784740 9.895754,44.293953 
	C17.308956,44.293953 24.214834,44.293953 31.120712,44.293953 
	C31.113981,45.076694 31.107250,45.859436 31.100517,46.642178 
	C24.025087,46.642178 16.949657,46.642178 9.412649,46.629440 
z"/>
<path fill="#172E3E" opacity="1.000000" stroke="none" 
	d="
M46.006561,6.866122 
	C51.438705,6.866051 56.373192,6.866051 61.307674,6.866051 
	C61.299721,7.549388 61.291767,8.232726 61.283813,8.916063 
	C57.038010,8.916063 52.792202,8.916063 47.600792,8.916063 
	C47.600792,21.909517 47.600792,34.129272 47.600792,46.349026 
	C46.869328,46.357243 46.137863,46.365456 45.406395,46.373672 
	C44.681129,34.252857 45.453911,22.054668 44.994076,9.656020 
	C40.559689,9.391212 36.319054,9.137973 32.078415,8.884734 
	C32.103333,8.211887 32.128246,7.539041 32.153164,6.866194 
	C36.605076,6.866194 41.056992,6.866194 46.006561,6.866122 
z"/>
<path fill="#345371" opacity="1.000000" stroke="none" 
	d="
M169.065628,54.635288 
	C166.862930,56.389194 164.842072,57.808758 162.881241,59.306919 
	C160.021393,61.491989 158.023651,66.094719 153.363159,62.151756 
	C154.102036,59.854206 154.646164,58.028873 155.357071,56.270988 
	C155.468506,55.995438 156.337402,56.026222 156.940582,56.206936 
	C164.123001,55.597687 170.217255,45.363121 168.176956,38.069874 
	C169.214539,35.620384 169.928024,33.415638 170.641510,31.210896 
	C173.651962,39.124214 172.643982,46.799957 169.065628,54.635288 
z"/>
<path fill="#8BA9C4" opacity="1.000000" stroke="none" 
	d="
M107.131454,37.102585 
	C108.473221,38.729755 109.443428,40.637600 110.518219,42.484589 
	C112.110008,45.220016 113.775993,47.912270 115.642532,51.220978 
	C115.934593,52.873985 115.994514,53.928913 115.995743,55.315338 
	C116.018669,56.086891 116.100296,56.526951 116.009193,57.289257 
	C115.532547,58.765907 115.228638,59.920307 114.924721,61.074711 
	C107.305756,54.850014 106.151283,46.412754 107.131454,37.102585 
z"/>
<path fill="#AAC6DE" opacity="1.000000" stroke="none" 
	d="
M147.925964,10.065439 
	C151.435852,11.290761 154.945755,12.516081 158.726196,14.304842 
	C161.777512,19.956560 165.328873,24.820196 163.465210,31.142090 
	C162.119690,31.094099 161.060547,31.082952 160.003799,30.682570 
	C160.860672,25.958773 161.051819,22.075546 155.992920,19.757225 
	C154.268051,18.966774 153.343079,16.559298 151.838516,15.113479 
	C150.872223,14.184920 149.515015,13.663157 148.188599,12.618746 
	C148.004745,11.540777 147.965347,10.803108 147.925964,10.065439 
z"/>
<path fill="#7A9DB9" opacity="1.000000" stroke="none" 
	d="
M163.751587,31.178930 
	C165.328873,24.820196 161.777512,19.956560 159.029907,14.510941 
	C165.115463,18.059534 168.726654,23.722729 170.728912,30.846045 
	C169.928024,33.415638 169.214539,35.620384 167.832840,37.955719 
	C166.072464,37.338837 164.980301,36.591366 163.904205,35.451317 
	C163.864029,33.765469 163.807816,32.472198 163.751587,31.178930 
z"/>
<path fill="#1E3A52" opacity="1.000000" stroke="none" 
	d="
M119.044456,28.053606 
	C118.794365,26.981548 118.544273,25.909492 118.440140,25.463100 
	C119.471024,24.103205 120.221130,23.113705 121.031235,21.418549 
	C120.664078,19.809795 120.236908,18.906698 119.809738,18.003601 
	C119.822296,17.550982 119.834854,17.098366 120.231453,16.347477 
	C121.070862,16.031483 121.526237,16.013762 122.263229,16.178745 
	C122.718369,17.228315 122.891876,18.095182 123.052673,19.364084 
	C122.853668,22.303478 123.781433,23.346403 126.488899,22.760576 
	C127.928146,22.449158 129.503738,22.767878 130.759613,23.029827 
	C128.649567,25.175282 126.797699,27.093069 124.542946,29.006832 
	C122.797226,29.001816 121.454407,29.000822 119.992828,28.781282 
	C119.665916,28.281590 119.389374,28.111881 119.044456,28.053606 
z"/>
<path fill="#111724" opacity="1.000000" stroke="none" 
	d="
M126.673630,12.898887 
	C130.136292,7.956050 138.317352,6.366826 146.901001,9.725164 
	C145.450150,11.182842 143.958557,12.425380 142.429565,12.473242 
	C140.583008,12.531045 138.704742,11.576226 136.451324,11.079492 
	C132.932846,11.699161 129.803238,12.299024 126.673630,12.898887 
z"/>
<path fill="#081C30" opacity="1.000000" stroke="none" 
	d="
M123.065376,18.962049 
	C122.891876,18.095182 122.718369,17.228315 122.331818,15.853760 
	C123.083694,14.466099 124.048615,13.586127 125.013542,12.706156 
	C125.169594,12.778477 125.325645,12.850798 125.753662,13.348192 
	C126.125900,14.695668 126.226181,15.618071 126.381859,17.050186 
	C129.849274,15.786586 132.964645,14.651281 136.510498,13.806198 
	C137.379791,15.381795 137.818619,16.667171 137.976105,18.108334 
	C136.468201,18.511944 135.241608,18.759766 133.713104,18.865868 
	C129.962570,18.803448 126.513969,18.882750 123.065376,18.962049 
z"/>
<path fill="#091323" opacity="1.000000" stroke="none" 
	d="
M138.257431,17.952547 
	C137.818619,16.667171 137.379791,15.381795 136.708008,13.537553 
	C136.596771,12.339019 136.718491,11.699351 136.840210,11.059685 
	C138.704742,11.576226 140.583008,12.531045 142.429565,12.473242 
	C143.958557,12.425380 145.450150,11.182842 147.026108,10.106308 
	C147.093903,9.743006 147.522430,9.871344 147.724197,9.968391 
	C147.965347,10.803108 148.004745,11.540777 148.200684,13.001350 
	C147.397995,14.402174 146.059875,15.875628 145.541153,15.628588 
	C142.234695,14.053875 140.421173,16.419300 138.257431,17.952547 
z"/>
<path fill="#506E8F" opacity="1.000000" stroke="none" 
	d="
M136.451324,11.079491 
	C136.718491,11.699351 136.596771,12.339019 136.277527,13.247332 
	C132.964645,14.651281 129.849274,15.786586 126.381859,17.050186 
	C126.226181,15.618071 126.125900,14.695668 126.007736,13.393044 
	C125.989838,13.012821 126.294098,12.730275 126.483864,12.814581 
	C129.803238,12.299024 132.932846,11.699161 136.451324,11.079491 
z"/>
<path fill="#305575" opacity="1.000000" stroke="none" 
	d="
M115.061584,61.326855 
	C115.228638,59.920307 115.532547,58.765907 116.254494,57.493965 
	C117.841499,58.854980 119.010483,60.333530 120.093033,61.900906 
	C120.006607,61.989731 119.832008,62.165680 119.832008,62.165680 
	C118.858459,62.277088 117.884903,62.388489 116.477943,62.573647 
	C116.044533,62.647396 115.598007,62.653458 115.598007,62.653458 
	C115.464821,62.295307 115.331635,61.937153 115.061584,61.326855 
z"/>
<path fill="#EFEFEF" opacity="1.000000" stroke="none" 
	d="
M54.975357,62.026249 
	C51.635983,59.533478 51.960648,57.304214 55.840572,54.063877 
	C55.591255,56.227577 55.308655,58.680092 55.013817,61.565536 
	C55.001579,61.998463 54.975357,62.026249 54.975357,62.026249 
z"/>
<path fill="#B9DEF1" opacity="1.000000" stroke="none" 
	d="
M125.008057,12.403437 
	C124.048615,13.586127 123.083694,14.466099 122.050186,15.671055 
	C121.526237,16.013762 121.070862,16.031483 120.275673,16.010765 
	C119.673615,12.128355 122.145927,11.863057 125.008057,12.403437 
z"/>
<path fill="#EFEFEF" opacity="1.000000" stroke="none" 
	d="
M60.483128,57.680183 
	C61.365463,58.551865 62.012680,59.703083 62.659901,60.854298 
	C61.922905,61.087238 61.185905,61.320179 60.448910,61.553120 
	C60.381943,60.355316 60.314980,59.157513 60.483128,57.680183 
z"/>
<path fill="#EFEFEF" opacity="1.000000" stroke="none" 
	d="
M55.014946,61.984692 
	C56.208614,62.145660 57.388916,62.320396 58.569218,62.495132 
	C58.468063,62.959370 58.366913,63.423603 58.265759,63.887840 
	C57.215385,63.497841 56.165016,63.107841 55.044998,62.372047 
	C54.975357,62.026249 55.001579,61.998463 55.014946,61.984692 
z"/>
<path fill="#B9DEF1" opacity="1.000000" stroke="none" 
	d="
M119.562576,17.958302 
	C120.236908,18.906698 120.664078,19.809795 121.055969,21.130945 
	C120.314194,20.676157 119.607712,19.803316 118.868607,18.497063 
	C118.995804,18.013437 119.155609,17.963221 119.562576,17.958302 
z"/>
<path fill="#8BA9C4" opacity="1.000000" stroke="none" 
	d="
M115.545547,62.881790 
	C115.598007,62.653458 116.044533,62.647396 116.240662,62.758629 
	C116.436798,62.869858 116.270355,63.251072 116.231277,63.455093 
	C115.838173,63.630058 115.605133,63.447063 115.545547,62.881790 
z"/>
<path fill="#8BA9C4" opacity="1.000000" stroke="none" 
	d="
M116.423370,64.071976 
	C116.631760,63.946804 116.821922,64.081657 117.044479,64.439331 
	C116.824051,64.639191 116.600136,64.529152 116.423370,64.071976 
z"/>
<path fill="#506E8F" opacity="1.000000" stroke="none" 
	d="
M126.441879,10.670586 
	C126.415398,10.604329 126.468361,10.736842 126.441879,10.670586 
z"/>
<path fill="#8BA9C4" opacity="1.000000" stroke="none" 
	d="
M117.433502,65.050690 
	C117.616272,64.917168 117.788078,65.017975 118.006943,65.300262 
	C118.086205,65.426895 117.728287,65.463730 117.728287,65.463730 
	C117.728287,65.463730 117.454750,65.230164 117.433502,65.050690 
z"/>
<path fill="#010612" opacity="1.000000" stroke="none" 
	d="
M116.054436,54.983841 
	C115.994514,53.928913 115.934593,52.873985 115.914108,51.423809 
	C116.479774,50.999454 117.006012,50.970352 118.116074,50.875458 
	C118.699905,50.809673 119.071114,50.913937 119.150238,51.238674 
	C120.098495,51.507809 120.967613,51.452209 121.996384,51.753006 
	C125.471848,53.734665 128.787674,55.359917 132.038879,57.376167 
	C130.690781,58.520901 129.490402,59.524132 128.109131,59.984314 
	C122.712845,61.782146 120.072884,56.676537 116.054436,54.983841 
z"/>
<path fill="#B1CDE3" opacity="1.000000" stroke="none" 
	d="
M119.071114,50.913937 
	C119.071114,50.913937 118.699905,50.809673 118.507370,50.819221 
	C118.104424,48.789082 117.894012,46.749393 118.134033,44.296921 
	C118.635040,43.548573 118.685623,43.213009 118.736206,42.877449 
	C118.759750,41.843235 118.783279,40.809017 119.247124,39.405098 
	C120.436981,38.953022 121.186531,38.870655 122.135910,38.919441 
	C122.335739,39.050594 122.775620,39.233833 122.792938,39.606388 
	C121.618752,43.642704 124.130852,48.572891 119.071114,50.913937 
z"/>
<path fill="#3F607B" opacity="1.000000" stroke="none" 
	d="
M121.936081,38.788288 
	C121.186531,38.870655 120.436981,38.953022 119.308136,39.021484 
	C118.850311,35.568989 118.771774,32.130402 118.868851,28.372711 
	C119.389374,28.111881 119.665916,28.281590 119.955780,29.210340 
	C120.640808,32.193970 121.244125,34.529991 121.865402,37.187214 
	C121.900940,37.935040 121.918510,38.361664 121.936081,38.788288 
z"/>
<path fill="#3F607B" opacity="1.000000" stroke="none" 
	d="
M118.521324,43.005428 
	C118.685623,43.213009 118.635040,43.548573 118.318542,43.978004 
	C118.137230,43.759052 118.221832,43.446232 118.521324,43.005428 
z"/>
<path fill="#5885B0" opacity="1.000000" stroke="none" 
	d="
M156.856064,55.915359 
	C156.337402,56.026222 155.468506,55.995438 155.357071,56.270988 
	C154.646164,58.028873 154.102036,59.854206 153.202713,61.824398 
	C152.273605,62.743687 151.644791,63.495914 150.686218,64.490143 
	C147.856354,64.495773 145.356247,64.259392 142.870178,63.641273 
	C142.144165,60.808987 141.404144,58.358440 140.892426,55.903275 
	C141.120728,55.898663 141.550964,56.051884 141.808655,55.975819 
	C146.858734,53.569813 153.484512,53.452194 154.318481,45.848572 
	C155.464966,45.285652 156.316833,44.864437 157.168716,44.443222 
	C157.447479,45.493080 157.726227,46.542938 157.722626,47.910252 
	C157.245529,50.790257 157.050797,53.352806 156.856064,55.915359 
z"/>
<path fill="#305575" opacity="1.000000" stroke="none" 
	d="
M142.856155,64.023018 
	C145.356247,64.259392 147.856354,64.495773 150.687317,64.833656 
	C149.080170,66.103401 147.262665,67.955009 145.183319,68.321671 
	C136.134003,69.917351 127.496422,68.898743 119.943085,62.490715 
	C119.832008,62.165680 120.006607,61.989731 120.459602,61.952797 
	C124.841171,63.183338 128.694885,64.870872 132.721451,65.588463 
	C136.083267,66.187584 139.955093,67.493492 142.856155,64.023018 
z"/>
<path fill="#091626" opacity="1.000000" stroke="none" 
	d="
M156.940582,56.206932 
	C157.050797,53.352806 157.245529,50.790257 158.042908,47.838436 
	C159.492538,44.010525 160.339539,40.571884 161.411194,37.030548 
	C161.905869,36.714642 162.078171,36.440105 162.444916,36.072071 
	C163.120773,35.974560 163.504456,35.909225 163.888153,35.843891 
	C164.980301,36.591366 166.072464,37.338837 167.508728,38.200462 
	C170.217255,45.363121 164.123001,55.597687 156.940582,56.206932 
z"/>
<path fill="#15293D" opacity="1.000000" stroke="none" 
	d="
M142.870178,63.641273 
	C139.955093,67.493492 136.083267,66.187584 132.721451,65.588463 
	C128.694885,64.870872 124.841171,63.183338 120.546028,61.863972 
	C119.010483,60.333530 117.841499,58.854980 116.427223,57.171722 
	C116.100296,56.526951 116.018669,56.086891 115.995743,55.315338 
	C120.072884,56.676537 122.712845,61.782146 128.109131,59.984314 
	C129.490402,59.524132 130.690781,58.520901 132.275711,57.164658 
	C133.003204,55.832809 133.429230,55.103470 134.000214,54.125965 
	C134.875519,55.703693 135.507446,56.842747 136.108231,57.925655 
	C137.854279,57.152344 139.259201,56.530121 140.664124,55.907890 
	C141.404144,58.358440 142.144165,60.808987 142.870178,63.641273 
z"/>
<path fill="#98B4CD" opacity="1.000000" stroke="none" 
	d="
M137.976105,18.108334 
	C140.421173,16.419300 142.234695,14.053875 145.541153,15.628588 
	C146.059875,15.875628 147.397995,14.402174 148.345123,13.341652 
	C149.515015,13.663157 150.872223,14.184920 151.838516,15.113479 
	C153.343079,16.559298 154.268051,18.966774 155.992920,19.757225 
	C161.051819,22.075546 160.860672,25.958773 159.771057,30.665108 
	C159.535919,31.036880 159.069473,31.040123 158.683319,31.015034 
	C156.730911,28.987795 155.164642,26.985647 154.232254,25.793776 
	C152.449005,26.340559 151.173691,26.462725 150.231262,27.087229 
	C148.995743,27.905933 148.022858,29.120960 146.652405,30.197975 
	C145.927673,31.006618 145.487518,31.782814 144.916382,32.906738 
	C143.863678,33.470333 142.941971,33.686192 141.849014,33.671547 
	C141.134338,33.278252 140.590912,33.115463 140.004395,32.718254 
	C139.961304,32.483826 139.956116,32.007141 140.130768,31.862429 
	C139.838364,31.513756 139.371277,31.309797 138.541382,31.074497 
	C137.175751,30.040936 136.172913,29.038713 135.547928,28.017992 
	C136.937790,27.947598 137.949829,27.895702 139.260529,27.995888 
	C142.661575,30.797235 143.674942,26.891947 145.708633,26.188089 
	C144.817245,25.114193 143.925858,24.040297 142.965393,22.621277 
	C140.047165,22.276152 137.197983,22.276152 134.023148,22.276152 
	C134.023148,24.232069 134.023148,25.681755 133.677490,27.116472 
	C132.872040,27.062153 132.412277,27.022800 131.989456,26.572063 
	C131.957626,25.078833 131.888840,23.996986 131.968140,22.626093 
	C132.749161,21.227226 133.382095,20.117407 134.015030,19.007587 
	C135.241608,18.759766 136.468201,18.511944 137.976105,18.108334 
z"/>
<path fill="#DFF1FB" opacity="1.000000" stroke="none" 
	d="
M159.069473,31.040123 
	C159.069473,31.040123 159.535919,31.036880 159.768646,31.054344 
	C161.060547,31.082952 162.119690,31.094099 163.465225,31.142090 
	C163.807816,32.472198 163.864029,33.765469 163.904205,35.451317 
	C163.504456,35.909225 163.120773,35.974560 162.117676,36.034302 
	C160.984314,35.671066 160.470337,35.313427 159.989777,34.646614 
	C159.685379,33.860031 159.347549,33.382614 159.025665,32.594368 
	C159.050903,31.869070 159.060181,31.454596 159.069473,31.040123 
z"/>
<path fill="#30506E" opacity="1.000000" stroke="none" 
	d="
M131.820053,22.915140 
	C131.888840,23.996986 131.957626,25.078833 131.899994,26.696571 
	C131.773560,27.232464 131.753922,27.538906 131.430420,27.680183 
	C130.438538,29.222124 129.770157,30.622787 129.041779,32.350018 
	C128.038925,33.808651 127.096085,34.940723 125.814102,36.012447 
	C125.309654,34.289555 125.144348,32.627010 124.990730,30.982635 
	C125.002419,31.000809 124.959770,30.993895 125.189789,30.860867 
	C125.301605,30.160374 125.183403,29.592907 125.035385,29.021587 
	C125.005569,29.017733 124.945831,29.010853 124.945831,29.010855 
	C126.797699,27.093069 128.649567,25.175282 130.961304,23.052160 
	C131.421204,22.846827 131.820053,22.915140 131.820053,22.915140 
z"/>
<path fill="#10293E" opacity="1.000000" stroke="none" 
	d="
M131.968140,22.626093 
	C131.820053,22.915140 131.421204,22.846827 131.219498,22.824493 
	C129.503738,22.767878 127.928146,22.449158 126.488899,22.760576 
	C123.781433,23.346403 122.853668,22.303478 123.052673,19.364084 
	C126.513969,18.882750 129.962570,18.803448 133.713104,18.865868 
	C133.382095,20.117407 132.749161,21.227226 131.968140,22.626093 
z"/>
<path fill="#1B3B54" opacity="1.000000" stroke="none" 
	d="
M121.847443,36.866013 
	C121.244125,34.529991 120.640808,32.193970 120.074532,29.428888 
	C121.454407,29.000822 122.797226,29.001816 124.542938,29.006832 
	C124.945831,29.010853 125.005569,29.017733 125.004768,29.348423 
	C124.989235,30.117374 124.974503,30.555635 124.959763,30.993895 
	C124.959770,30.993895 125.002419,31.000809 124.677200,31.151241 
	C123.850853,33.003693 123.349731,34.705708 122.586365,36.496201 
	C122.165230,36.678455 122.006340,36.772236 121.847443,36.866013 
z"/>
<path fill="#0C2035" opacity="1.000000" stroke="none" 
	d="
M140.892426,55.903278 
	C139.259201,56.530121 137.854279,57.152344 136.108231,57.925655 
	C135.507446,56.842747 134.875519,55.703693 134.000214,54.125965 
	C133.429230,55.103470 133.003204,55.832809 132.340332,56.773663 
	C128.787674,55.359917 125.471848,53.734665 122.093025,51.467049 
	C123.357216,49.172470 124.684410,47.520252 126.341431,46.041698 
	C128.396042,49.794441 130.998505,49.718674 134.355499,47.893074 
	C135.186478,47.723164 135.663300,47.635799 136.196365,47.911140 
	C137.176437,48.482315 138.100296,48.690784 139.092392,49.287323 
	C139.957413,51.800892 140.754181,53.926388 141.550964,56.051884 
	C141.550964,56.051884 141.120728,55.898663 140.892426,55.903278 
z"/>
<path fill="#567B9A" opacity="1.000000" stroke="none" 
	d="
M126.011597,45.868038 
	C124.684410,47.520252 123.357216,49.172470 121.933380,51.110645 
	C120.967613,51.452209 120.098495,51.507809 119.150238,51.238674 
	C124.130852,48.572891 121.618752,43.642704 122.899124,39.497551 
	C122.987976,39.016159 123.199524,38.805080 123.459610,38.857937 
	C124.076584,38.925388 124.433472,38.939983 124.886574,39.199394 
	C125.065689,39.598747 125.148590,39.753281 125.218071,40.270035 
	C125.519829,41.747314 125.834999,42.862381 126.141541,44.293579 
	C126.092476,45.029152 126.052040,45.448593 126.011597,45.868038 
z"/>
<path fill="#567B9A" opacity="1.000000" stroke="none" 
	d="
M121.865402,37.187214 
	C122.006340,36.772236 122.165230,36.678455 122.657166,36.901489 
	C123.059975,37.747231 123.129753,38.276157 123.199524,38.805080 
	C123.199524,38.805080 122.987976,39.016159 122.881798,39.124996 
	C122.775620,39.233833 122.335739,39.050594 122.135910,38.919441 
	C121.918510,38.361664 121.900940,37.935040 121.865402,37.187214 
z"/>
<path fill="#7FA4C2" opacity="1.000000" stroke="none" 
	d="
M141.808655,55.975819 
	C140.754181,53.926388 139.957413,51.800892 139.187164,49.037537 
	C139.477753,47.938175 139.741837,47.476662 140.372589,47.009277 
	C141.469879,46.945694 142.200470,46.887989 143.303223,46.850937 
	C145.802399,46.284580 147.929428,45.697578 150.044739,45.445026 
	C150.144257,46.606544 150.255524,47.433613 150.376099,48.329987 
	C151.789185,47.423634 152.906540,46.706951 154.023895,45.990273 
	C153.484512,53.452194 146.858734,53.569813 141.808655,55.975819 
z"/>
<path fill="#698CB1" opacity="1.000000" stroke="none" 
	d="
M154.318481,45.848568 
	C152.906540,46.706951 151.789185,47.423634 150.376099,48.329987 
	C150.255524,47.433613 150.144257,46.606544 150.256470,45.323307 
	C150.743454,44.658932 150.926041,44.394798 151.360352,43.930584 
	C154.266983,40.726063 156.539749,37.235912 161.186523,37.133244 
	C160.339539,40.571884 159.492538,44.010525 158.325256,47.520981 
	C157.726227,46.542938 157.447479,45.493080 157.168716,44.443222 
	C156.316833,44.864437 155.464966,45.285652 154.318481,45.848568 
z"/>
<path fill="#A6C2DB" opacity="1.000000" stroke="none" 
	d="
M161.411194,37.030548 
	C156.539749,37.235912 154.266983,40.726063 151.341949,43.510273 
	C150.657959,39.878128 150.325058,36.522152 150.271637,32.944504 
	C149.346405,31.870399 148.141708,31.017963 146.937012,30.165527 
	C148.022858,29.120960 148.995743,27.905933 150.231262,27.087229 
	C151.173691,26.462725 152.449005,26.340559 154.232254,25.793776 
	C155.164642,26.985647 156.730911,28.987795 158.683319,31.015034 
	C159.060181,31.454596 159.050903,31.869070 159.033920,32.903782 
	C159.336273,34.001274 159.646332,34.478527 159.956390,34.955788 
	C160.470337,35.313427 160.984314,35.671066 161.825531,36.066475 
	C162.078171,36.440105 161.905869,36.714642 161.411194,37.030548 
z"/>
<path fill="#ECF3F9" opacity="1.000000" stroke="none" 
	d="
M125.231483,39.907818 
	C125.148590,39.753281 125.065689,39.598747 124.984665,38.889107 
	C125.375443,37.580265 125.764343,36.826530 126.153236,36.072792 
	C127.096085,34.940723 128.038925,33.808651 129.342697,32.297531 
	C130.717392,31.669903 131.731186,31.421328 132.854813,31.145821 
	C132.469711,29.884096 132.111816,28.711500 131.753922,27.538906 
	C131.753922,27.538906 131.773560,27.232464 131.863037,27.107956 
	C132.412277,27.022800 132.872040,27.062153 133.819916,27.320866 
	C134.595367,27.705645 134.882721,27.871067 135.170090,28.036489 
	C136.172913,29.038713 137.175751,30.040936 138.581589,31.295303 
	C138.984604,31.547449 139.011627,31.996515 138.690582,32.043152 
	C136.580353,35.068794 134.791153,38.047802 132.605087,41.016312 
	C129.882645,40.639816 127.557060,40.273815 125.231483,39.907818 
z"/>
<path fill="#C1D6E5" opacity="1.000000" stroke="none" 
	d="
M142.931076,46.830288 
	C142.200470,46.887989 141.469879,46.945694 140.198059,46.763680 
	C138.484604,46.865456 137.312378,47.206951 136.140137,47.548439 
	C135.663300,47.635799 135.186478,47.723164 134.331940,47.579750 
	C133.286942,46.578232 132.619659,45.807491 132.194122,44.761185 
	C133.958542,43.667084 135.481232,42.848541 137.003387,42.016308 
	C137.002869,42.002613 137.030060,42.006195 137.413818,41.994678 
	C142.592041,41.059227 140.927444,36.760220 142.020248,33.902054 
	C142.941971,33.686192 143.863678,33.470333 145.253113,32.956230 
	C146.140778,32.827579 146.560699,32.997173 146.928986,33.544167 
	C145.561920,38.224476 144.246506,42.527382 142.931076,46.830288 
z"/>
<path fill="#C9DBE9" opacity="1.000000" stroke="none" 
	d="
M135.547928,28.017990 
	C134.882721,27.871067 134.595367,27.705645 134.165573,27.335831 
	C134.023148,25.681755 134.023148,24.232069 134.023148,22.276152 
	C137.197983,22.276152 140.047165,22.276152 142.828430,22.916443 
	C141.494293,24.985760 140.228073,26.414783 138.961853,27.843807 
	C137.949829,27.895702 136.937790,27.947598 135.547928,28.017990 
z"/>
<path fill="#DDE7EF" opacity="1.000000" stroke="none" 
	d="
M133.001953,41.026810 
	C134.791153,38.047802 136.580353,35.068794 138.926636,32.046883 
	C139.483719,32.003979 139.956116,32.007141 139.956116,32.007141 
	C139.956116,32.007141 139.961304,32.483826 139.962219,33.090744 
	C138.985443,36.467178 138.007751,39.236687 137.030060,42.006195 
	C137.030060,42.006195 137.002869,42.002613 136.637146,42.009758 
	C135.181595,41.686871 134.091782,41.356842 133.001953,41.026810 
z"/>
<path fill="#BED2DE" opacity="1.000000" stroke="none" 
	d="
M137.413818,41.994678 
	C138.007751,39.236687 138.985443,36.467178 140.005310,33.325172 
	C140.590912,33.115463 141.134338,33.278252 141.849014,33.671547 
	C140.927444,36.760220 142.592041,41.059227 137.413818,41.994678 
z"/>
<path fill="#BED2DE" opacity="1.000000" stroke="none" 
	d="
M139.260529,27.995888 
	C140.228073,26.414783 141.494293,24.985760 142.897491,23.261566 
	C143.925858,24.040297 144.817245,25.114193 145.708633,26.188089 
	C143.674942,26.891947 142.661575,30.797235 139.260529,27.995888 
z"/>
<path fill="#1A354D" opacity="1.000000" stroke="none" 
	d="
M146.980637,33.166763 
	C146.560699,32.997173 146.140778,32.827579 145.384094,32.608494 
	C145.487518,31.782814 145.927673,31.006618 146.652405,30.197975 
	C148.141708,31.017963 149.346405,31.870399 149.896667,32.888222 
	C148.488373,33.091331 147.734512,33.129047 146.980637,33.166763 
z"/>
<path fill="#BED2DE" opacity="1.000000" stroke="none" 
	d="
M140.130768,31.862429 
	C139.956116,32.007141 139.483719,32.003979 139.247681,32.000248 
	C139.011627,31.996515 138.984604,31.547449 138.944397,31.326643 
	C139.371277,31.309797 139.838364,31.513756 140.130768,31.862429 
z"/>
<path fill="#849FBB" opacity="1.000000" stroke="none" 
	d="
M159.989792,34.646614 
	C159.646332,34.478527 159.336273,34.001274 159.017975,33.214607 
	C159.347549,33.382614 159.685379,33.860031 159.989792,34.646614 
z"/>
<path fill="#3F607B" opacity="1.000000" stroke="none" 
	d="
M125.814102,36.012451 
	C125.764343,36.826530 125.375443,37.580265 124.888443,38.644287 
	C124.433472,38.939983 124.076584,38.925388 123.459610,38.857937 
	C123.129753,38.276157 123.059975,37.747231 122.919403,36.813019 
	C123.349731,34.705708 123.850853,33.003693 124.665512,31.133068 
	C125.144348,32.627010 125.309654,34.289555 125.814102,36.012451 
z"/>
<path fill="#C9DBE9" opacity="1.000000" stroke="none" 
	d="
M131.430420,27.680183 
	C132.111816,28.711500 132.469711,29.884096 132.854813,31.145821 
	C131.731186,31.421328 130.717392,31.669903 129.402710,31.970966 
	C129.770157,30.622787 130.438538,29.222124 131.430420,27.680183 
z"/>
<path fill="#3F607B" opacity="1.000000" stroke="none" 
	d="
M125.189789,30.860867 
	C124.974503,30.555635 124.989235,30.117374 125.034592,29.352278 
	C125.183403,29.592907 125.301605,30.160374 125.189789,30.860867 
z"/>
<path fill="#ACC8DD" opacity="1.000000" stroke="none" 
	d="
M131.952377,45.036747 
	C132.619659,45.807491 133.286942,46.578232 133.977783,47.662300 
	C130.998505,49.718674 128.396042,49.794441 126.341431,46.041698 
	C126.052040,45.448593 126.092476,45.029152 126.511566,44.308250 
	C128.577606,44.350109 130.264999,44.693428 131.952377,45.036747 
z"/>
<path fill="#ACC8DD" opacity="1.000000" stroke="none" 
	d="
M136.196365,47.911140 
	C137.312378,47.206951 138.484604,46.865456 139.831390,46.769554 
	C139.741837,47.476662 139.477753,47.938175 139.118896,48.649471 
	C138.100296,48.690784 137.176437,48.482315 136.196365,47.911140 
z"/>
<path fill="#BED2DE" opacity="1.000000" stroke="none" 
	d="
M132.194122,44.761185 
	C130.264999,44.693428 128.577606,44.350109 126.520203,43.992119 
	C125.834999,42.862381 125.519829,41.747314 125.218071,40.270035 
	C127.557060,40.273815 129.882645,40.639816 132.605087,41.016312 
	C134.091782,41.356842 135.181595,41.686871 136.637665,42.023453 
	C135.481232,42.848541 133.958542,43.667084 132.194122,44.761185 
z"/>
<path fill="#ACC8DD" opacity="1.000000" stroke="none" 
	d="
M146.928986,33.544167 
	C147.734512,33.129047 148.488373,33.091331 149.617203,33.109894 
	C150.325058,36.522152 150.657959,39.878128 151.009277,43.654419 
	C150.926041,44.394798 150.743454,44.658932 150.268219,44.988857 
	C147.929428,45.697578 145.802399,46.284580 143.303223,46.850937 
	C144.246506,42.527382 145.561920,38.224476 146.928986,33.544167 
z"/>
</svg>